<svg xmlns="http://www.w3.org/2000/svg" width="870" height="620"><linearGradient id="a" gradientUnits="userSpaceOnUse" x1="5.852" y1="363.268" x2="758.985" y2="363.268"><stop offset="0" stop-color="#45bdfa"/><stop offset=".051" stop-color="#46b6f4" stop-opacity=".959"/><stop offset=".492" stop-color="#4f7fc3" stop-opacity=".606"/><stop offset=".822" stop-color="#545da4" stop-opacity=".343"/><stop offset="1" stop-color="#565099" stop-opacity=".2"/></linearGradient><path d="M758.8 212.2c-.7-2.3-3.2-3.6-5.5-2.9-1.2.4-2.2 1.3-2.7 2.4l-125.9-42.8 17.7-43.4 13.8-1.9c.1.5.4.9.8 1.2.4.4 1 .6 1.6.6.7 0 1.4-.3 1.9-.9.9-1.1.7-2.6-.3-3.5-.1-.1-.2-.2-.4-.3l35.1-97c.3.1.6.1.8 0 .8-.1 1.6-.5 2.1-1.1.5-.6.8-1.5.7-2.3-.1-.8-.5-1.6-1.1-2.1-.6-.5-1.5-.8-2.3-.7-1.3.1-2.4 1.1-2.7 2.3l-6.6-1.1.8-2.1 2-1.9-1.5.8.3-.8L686 16l-4 2-22.8-4c0-.6-.3-1.2-.7-1.6-.9-.7-2.2-.6-3 .3-.2.2-.3.5-.4.8l-20.3-2.1c0-.5-.3-1-.7-1.3-.8-.7-2.1-.6-2.8.3-.7.8-.6 2.1.3 2.8.1.1.2.1.3.2l-9 27c-.6-.1-1.1.2-1.5.6-.2.2-.3.4-.3.7l-80.5-1.6c-.1-.4-.3-.7-.5-.9-.2-.2-.5-.3-.7-.3-.5-.2-1-.2-1.5 0-.9.4-1.3 1.5-.9 2.5.2.5.6.8 1.1 1l-3.1 51-45.8 23.4c-.7-1.6-2.5-2.4-4.2-1.9-.9.3-1.6.9-2 1.7-.4.8-.5 1.8-.2 2.6.3 1 1.1 1.9 2.2 2.2l-61.7 188c-.3-.5-.6-.9-1-1.2-.8-.7-1.8-1-2.9-1.1l-2.4-51.7c.7-.1 1.3-.5 1.8-1 1-1.3.9-3.2-.4-4.2-1.3-1.1-3.2-.9-4.2.4-.3.4-.5.8-.6 1.3l-127.6-8c0-1.5-.7-3-1.9-3.9-1.1-.9-2.4-1.3-3.8-1.2-1.4.1-2.6.8-3.5 1.8-.9 1.1-1.3 2.4-1.2 3.8.1 1.4.8 2.6 1.8 3.5.9.8 2.1 1.2 3.3 1.2h.6l34.2 161.7c-.6.2-1 .5-1.4 1-.7.9-.9 2.1-.5 3.2l-52 29.1c-.2-.3-.4-.5-.6-.7-1.6-1.3-3.9-1.1-5.2.5-1.3 1.6-1.1 3.9.5 5.2.7.5 1.5.8 2.4.8.2 0 .4 0 .7-.1l12.3 41c-.6.3-1.1.6-1.6 1.1-.7.8-1 1.9-.9 2.9.1 1.1.6 2 1.4 2.7.7.6 1.6.9 2.5.9.3 0 .7 0 1-.2l1.3 3.4-51.1 42.4c-1-1-2.5-1.4-3.9-.9-1.6.5-2.7 1.9-2.7 3.6l-53.7 3.5 40.1-130.6c.4.1.7.1 1 .1h.4c2.6-.2 4.5-2.6 4.3-5.2-.2-2.5-2.3-4.3-4.7-4.3h-.4c-1.3.1-2.4.7-3.2 1.7-.8 1-1.2 2.2-1.1 3.5.1 1 .5 2 1.3 2.8l-64.1 71.4c-.9-.7-2.1-1.1-3.3-.9-1.3.1-2.4.7-3.2 1.7s-1.2 2.2-1.1 3.5c.1 1.3.7 2.4 1.7 3.2.9.7 1.9 1.1 3 1.1h.5c.2 0 .3 0 .5-.1l16.2 53L16.8 560c0-.3-.1-.6-.2-.8-.9-2.9-3.9-4.5-6.8-3.6-2.9.9-4.5 3.9-3.6 6.8.7 2.3 2.8 3.8 5.2 3.8.5 0 1.1-.1 1.6-.2 1.5-.5 2.7-1.6 3.4-3.1l111.9 38-8.6 9.4c-.6-.4-1.3-.6-1.9-.5-1.6.2-2.8 1.6-2.7 3.2.2 1.6 1.6 2.8 3.2 2.7.5 0 .9-.2 1.4-.5l85.5 96.9c-.5.6-.8 1.4-.7 2.2.1.8.5 1.5 1.1 2 .5.4 1.2.7 1.9.7h.3c1.6-.2 2.8-1.6 2.7-3.3-.1-.7-.4-1.4-1-2l58.7-90.2 105.6-53.9c.5 1 1.5 1.6 2.5 1.6.3 0 .6 0 .8-.1.7-.2 1.3-.7 1.7-1.4.4-.7.4-1.4.2-2.2-.3-.8-.9-1.5-1.7-1.8L393 516l98.4-58.3c.3.4.5.7.8.9.9.7 1.9 1.1 3 1.1h.5c1.3-.1 2.4-.7 3.2-1.7.8-1 1.2-2.2 1.1-3.5-.1-1.3-.7-2.4-1.7-3.2-.8-.7-1.8-1-2.9-1.1l-5.2-96.5c1-.1 1.9-.6 2.6-1.3l49 44c-.5.7-.7 1.5-.6 2.3.1.9.5 1.7 1.2 2.3.7.6 1.6.9 2.5.8 1.9-.2 3.3-1.9 3.1-3.7v-.3l46.6-14.2c.6 1.3 2 2.2 3.5 2.1.7-.1 1.4-.4 1.9-.8l26.6 24.2c-.3.4-.4.9-.3 1.4.1.6.3 1.1.8 1.5.5.4 1 .5 1.6.5 1.2-.1 2.1-1.2 2-2.4 0-.3-.1-.6-.3-.9l67.9-59.9c.4.3 1 .5 1.5.4 1.2-.1 2.1-1.2 2-2.4-.1-.6-.3-1.1-.8-1.5-.5-.4-1-.6-1.6-.5-.5 0-1 .3-1.3.7L600 282.2c.2-.4.2-.7.2-1.1-.1-.8-.6-1.5-1.3-1.9l11.3-39.9h.6c.7-.1 1.4-.4 1.8-1 .5-.6.7-1.3.6-2-.1-.7-.4-1.4-1-1.8-.6-.5-1.2-.7-2-.6-.7.1-1.4.5-1.9 1.1l-8.8-4.7 2.6-6.5 148-9.7c0 .2.1.4.1.6.3 1.1 1.1 2 2.2 2.6 1 .5 2.3.7 3.4.3 1.1-.3 2-1.1 2.6-2.2.6-.9.7-2.1.4-3.2zM601 381.9c0-.1 0-.3-.1-.4l96.5-33v.1l-67.9 59.9c-.4-.3-.9-.5-1.4-.5h-.2c-.4 0-.8.2-1.1.4l-26.6-24.2c.7-.7.9-1.5.8-2.3zm96.2-34.3v.1l-96.5 33c-.5-1.1-1.5-1.8-2.7-1.9l.3-95.2c.5-.1 1-.3 1.3-.7l97.7 63.6c-.1.4-.2.8-.1 1.1zm-291.8 18.7l16.2-49.2 15.4 29-31.6 20.2zM539 42.2l16.8 40.3-20 10.2 3.1-50.5h.1zm144.4-24l.5-.3-.3.3h-.2zm-85 212.8c-.3-.1-.7-.2-1-.2v-.8l1.2.6-.2.4zm11 8.1L598.2 279h-.6l-10.4-34.7 6.3-5.2c.9.9 2.2 1.5 3.5 1.5.5 0 1-.1 1.5-.2 2.6-.8 4-3.6 3.2-6.1-.4-1.2-1.3-2.3-2.5-2.9l.1-.2 8.7 4.7c-.1.4-.2.8-.2 1.2.1.8.7 1.7 1.6 2zM418.5 437.6l71.8 16.7c-.1.9 0 1.9.4 2.7l-97.6 57.9 25.4-77.3zm-57.9 97.5l13.8 28.6-22.3-23.6 8.5-5zM156 564.6c-1.9.8-3.2 2.8-3 4.8.1 1 .5 2 1.3 2.8l-25.4 27.9L16.6 562c.1-.4.2-.8.2-1.3l135.3-8.9 3.9 12.8zm-16.6-71.7c-.1-1-.5-2-1.3-2.8l64.1-71.4c.3.3.7.5 1.1.6l-40.2 130.9-10.4.7-16.2-53.2c1.9-.7 3.1-2.7 2.9-4.8zm85.5 51.8l50.9-42.2 11.9 31.6v5.9l-62.2 6.2c0-.1-.1-.3-.1-.4-.2-.5-.3-.8-.5-1.1zm35.2-95.3c.6-.2 1-.6 1.4-1 .9-1.1 1.1-2.5.5-3.8l52-29.1c.2.2.3.4.5.6 0 0 .1.1.2.1l-28.3 52.6c-1 .3-1.8 1-2.3 1.9-.5.9-.6 1.9-.3 2.9l-9.2 17.1c-.5-.2-1-.3-1.5-.3-.3 0-.5 0-.8.1l-12.2-41.1zm155.4-140.8c-.1.2-.3.4-.4.6l-129.5-63.5c.2-.4.3-.8.3-1.2l127.6 8c.1.8.4 1.6 1 2.1.5.4 1 .6 1.6.7l2.4 51.7c-1.2.1-2.3.7-3 1.6zm118.3-195.8l-3.2 52.1-42.1-44.6c.5-.5.8-1.1.9-1.8l44.4-5.7zm22.4-29.6l10.2 24.5-31.8 4.1 1.1-18.2 20.5-10.4zm67.7-42.6l-.1-.1 9-27h.3c.6 0 1.1-.3 1.5-.7.2-.2.3-.4.3-.7l20.3 2.1c0 .3.1.6.3.8l-31.6 25.6zm53.4-15l6.7-6.5.6.1-2 4.9-5.3 1.5zm-317 508.8l-8.7 5.1-15.3-16.1 9.2-19.4 14.8 30.4zm-197.8 35l48 .1-21.3 45.6c-1.2-.4-2.5-.5-3.6-.1-1.6.5-2.8 1.6-3.5 3.2l-8-2.7-14.4-42.2c1.5-.7 2.6-2.1 2.8-3.9zM539 228.8l-19 1.9 6.9-27 12.1 25.1zm86.4-181.9l-1.6-3.6.3-.3c.3-.3.4-.8.4-1.2l25.2-7.4-24.3 12.5zM472.3 339.5l24.3-20.1L491 341l-7.2 4.6-11.5-6.1zM304.1 539.1l-2.4 24.9c-.6 0-1.2.1-1.8.2l-9-23.8 13.2-1.3zm-5.5 35.5c.3.2.5.3.7.4l.9.3-2.2.3.6-1zm146.8-233.1l-6.9 5.7-.5-.9 7.4-4.8zm143.8-114.7c.3-.2.5-.5.6-.8l6.8 3.6v1.2c-.4 0-.7.1-1 .2-.6.2-1.1.5-1.6.8l-4.8-5zm-7.3 2.4l4.4 14.8-11.1 9.2-9-10.9 15.7-13.1zm-79.1 65.7l-5.9 23.1-25.5 21-13.3-7.1 44.7-37zm-.9-57.9c1.7-.5 2.9-2.2 2.9-4l14.1-1.4-15.8 61.9-45.8 38-2.5-1.3 44.4-93.2c.9.3 1.9.3 2.7 0zm88.2-13.1c0-.1 0-.2-.1-.3-.2-.7-.7-1.3-1.4-1.7l7.7-16.6.1 18.2-6.3.4zm-34 46.3c.6.6 1.4.9 2.3.9h.2l4 19.5c-2.3.7-3.5 3.1-2.8 5.4.1.2.2.4.3.7l-68 43.8 5.6-21.8 58.4-48.5zM589 105.7l2.2-.3c0 .2.1.3.1.5.6 2.1 2.4 3.5 4.6 3.7v4.8l-6.9-8.7zm2-1.1l-2.7.3-2.8-3.5.1-.1c.1-.1.2-.3.3-.5l5.4 1.7c-.2.7-.3 1.4-.3 2.1zm-7.2 120.6v.2c.1.2.2.5.4.8l-2 1.6-.7-2.4 2.3-.2zm-3 .3l.9 2.9-15.9 13.2-11.1-13.5 26.1-2.6zm1.4-4.5c0-.1.1-.1.1-.2l.5.6-.6-.4zm-5.1-2.5L532 198c.4-.8.4-1.8 0-2.6l16.7-10.2 30.2 31.9c-.8.2-1.4.7-1.8 1.4zm4.8 3.2l2.3 1.2c-.2.4-.4.9-.4 1.4l-2.4.2-.6-2c.4-.1.8-.4 1.1-.8zm-50.3-23l45.2 20.5c-.1.4-.2.7-.1 1.1.1.8.4 1.5 1 2s1.3.7 2.1.7h.2l.6 1.8-26.6 2.6-23.1-28 .7-.7zm56.5-92.9l7.8 9.7.5 87.7-8.5 18.2c-.6-.2-1.3-.2-1.9 0-.5.1-.9.4-1.2.7l-2.4-2.5c-.2-1.3-1.1-2.2-2.3-2.5l-30.6-32.3 33.5-20.3c.2.3.4.5.7.7.7.5 1.4.8 2.3.8h.5c1-.1 1.9-.6 2.5-1.4.6-.8.9-1.8.7-2.7-.1-1-.6-1.9-1.4-2.5-.9-.7-2-.9-3.1-.7l-13.7-40.5c.6-.3 1.1-.7 1.5-1.2 1.3-1.7 1-4.3-.7-5.6-1-.8-2.3-1-3.6-.6l-.9-2.2 20.3-2.8zm-18.4 12.7c.3 0 .6 0 .9-.1l13.7 40.5c-.5.3-1 .6-1.4 1.1-.8 1.1-1 2.6-.4 3.8l-33.6 20.4-8.7-9.2 28-56.8c.5.2 1 .3 1.5.3zm-21.5 66.2l-16.6 10.1-.5-.5c-.1 0-.1-.1-.2-.1l9-18.2 8.3 8.7zm5.4 43.5l11.4 13.9-13.3 11.1-11.4-23.7 13.3-1.3zm3.7 36.4l-5.2-10.6 13.5-11.2 9 10.9-14.1 11.6c-.6-.6-1.5-.9-2.3-.9-.2 0-.6.1-.9.2zm-2.2 4.1c.1.2.2.5.4.8l-57.6 47.6 5.9-23.1 47.6-39.5 5.1 10.5c-1.2.8-1.8 2.3-1.4 3.7zm29.7-41.9c.6.6 1.4.9 2.2.9.3 0 .6 0 1-.1.2-.1.3-.1.5-.2l4.9 5.2c-1.2 1.3-1.5 3.1-1 4.7.1.4.4.9.7 1.3l-6 5-4.4-14.8 2.1-2zm5.3-1.6c0-.2.1-.4.1-.5l6.4-.4v4.4l-6.5-3.5zm9.6-124.8c-1.4-1.2-3.2-1.6-5-1.1-1.3.4-2.4 1.3-3 2.5l-5.5-1.7c.1-.8-.2-1.6-.8-2.2L616 52.7l9-4.6 8.5 19.2-33.8 33.1zm-17.2-2.8l-15.1-20.1 47.2-24.1-29.9 44.1c-.7-.3-1.5-.3-2.2.1zm-16 14.4c-.7.8-.9 1.9-.8 3 .1 1.1.7 2 1.5 2.7.1.1.2.1.3.2l-27.9 56.5-8.3-8.7 3.2-53 32.1-4.1 1 2.4c-.3.3-.8.6-1.1 1zm-26.6 116.7l-12.7-26.3.7-2.8c.7.3 1.4.3 2.2 0l22.8 27.7-13 1.4zm-84.5 110.1c.6-1.1.7-2.3.3-3.4-.1-.3-.3-.6-.5-1l2.3-1.9 13.3 7.1-25.3 20.9-1-1.9 5.8-17.6c.4.1.8.2 1.2.2.4 0 .9-.1 1.3-.2 1.1-.4 2-1.1 2.6-2.2zm-13.9 26.1l-3.3 10.1-40.3 25.9 43.6-36zM289.7 539.6l-1.3.1v-3.6l1.3 3.5zm6.5 27.9c-.2.5-.3 1-.4 1.5h-7.2l-.2-28.4 1.6-.2 9.1 24c-1.3.7-2.4 1.8-2.9 3.1zm-8-76.6l-.1-14.5c.3 0 .5-.1.7-.1.4-.1.8-.4 1.2-.7l7.3 7.7-9.1 7.6zm23.2-19.2l1.9-19.9 3.4-2.8c.5.5 1.1.7 1.8.7.3 0 .5 0 .8-.1l5.4 11.1-13.3 11zm4.5-23.9c.1.2.1.4.3.6l-2.8 2.3 1.7-18 2.4 11.8c-1.3.4-2 1.9-1.6 3.3zm-24.4 23.5c-.1-.3-.3-.7-.5-1l21.4-17.8-1.9 19.9-12.5 10.4-7.3-7.7c.9-1.1 1.2-2.5.8-3.8zm18.9 2.3l-2 20.2-9.8-10.4 11.8-9.8zm10.7-27.5c-.1-.2-.1-.4-.3-.6l28.9-23.9 17.1 4-41.5 34.5-5.3-10.9c1-.7 1.5-1.9 1.1-3.1zm65.8-37.1l-19.3 16-17.1-4 49.4-40.8-6.8 20.6c-1.1-.3-2.2-.3-3.2 0-1.4.4-2.6 1.4-3.2 2.7-.7 1.3-.8 2.8-.4 4.2.2.4.4.8.6 1.3zm-37.4 11.8l-20.1-4.6 74.3-47.9-3.4 10.5-50.8 42zm-32 3.7c0-.1-.1-.3-.2-.5l11.2-7.2 20.2 4.7-28.4 23.5c-.5-.4-1.1-.7-1.8-.7h-.1l-2.9-14.4.1-1.1c1.6-.8 2.4-2.6 1.9-4.3zm-26.9 115.1l-2.1-5.7-.2-41.8 9.7-8.1 10.4 11-4.2 43.3-13.6 1.3zm18.5-43.9l26.3 27.8-3.7 7.8c-1.1-.4-2.3-.5-3.4-.1-2.2.7-3.7 2.7-3.6 5l-19.7 2 4.1-42.5zm.1-1.1l2.1-21.7 13.8-11.5 20.1 41.5-9.4 19.7-26.6-28zm16.5-33.7l42.2-35 12.5 2.9-34.8 73.2-19.9-41.1zm68.3-59.8l7.2-21.9 37.1-30.7 5.4 10.1-1.6 4.7-46.8 38.7c-.4-.4-.8-.7-1.3-.9zm49.2-38.7l.9-2.7.7 1.4-1.6 1.3zm-3.9 11.9l3.4-10.4 2.5-2.1 3.4 6.5-9.3 6zm-.5-26.3l9.6-7.9c.3.3.6.5 1 .7l-5.5 16.8-5.1-9.6zm-119.7 67.6c.2-.2.4-.6.5-.9l7.8 1.8-10.6 6.8c-.2-.3-.4-.5-.7-.6l.6-5.9c.9-.1 1.8-.5 2.4-1.2zm-4.7 13.4l.2.9-2.1 21.5-22.1 18.3c-.7-.7-1.7-1.1-2.8-1.1h-.2l23.2-43c0 .4.1.7.2 1 .5 1.5 1.8 2.5 3.3 2.5.1-.1.2-.1.3-.1zm-25.7 144v-3.2h7.1c0 1.7.8 3.3 2.1 4.3l-1 1.5-4.5.6c0-.1 0-.2-.1-.3-.5-1.6-1.9-2.7-3.6-2.9zm16.2-34l19.9-2c0 .2.1.4.1.6.7 2.2 2.7 3.6 4.9 3.6.5 0 1-.1 1.5-.2 1.3-.4 2.4-1.3 3-2.5.6-1.2.8-2.6.4-3.9-.4-1.2-1.2-2.3-2.3-2.9l3.6-7.5 14.9 15.8-44.7 26.5c-.6-.9-1.5-1.6-2.5-2-.4-.1-.8-.3-1.2-.3l2.4-25.2zm63.8-113.8l18.8-15.6c.4.5.9.9 1.5 1.2l-8.2 17.2-12.1-2.8zm21-14c1.2.4 2.4.4 3.5.1 1.4-.4 2.6-1.4 3.2-2.7.7-1.3.8-2.8.4-4.2-.1-.4-.3-.9-.6-1.3l41.6-26.8-19.8 60.3-36.3-8.4 8-17zm211.8-306.3c.1-.7 0-1.4-.2-2.1-.2-.6-.5-1.2-1-1.8l33.6-32.9 16 36.3-5.6 13.7-42.8-13.2zm-19.6-6.8l-.1.1c-.9 1.1-.7 2.6.3 3.5.4.4 1 .6 1.6.6.4 0 .9-.1 1.2-.3l2.5 3.1-20.2 2.6-10.4-24.8 9.9-5 15.2 20.2c0-.1 0 0 0 0zm-42.6 77.1l-9.1 18.5c-.1 0-.3-.1-.4-.1l1.6-26.8 7.9 8.4zm-35.1 117.5l15.6-61.1 19.6-1.9 11.7 24.1-46.9 38.9zm-47.5 39.4l-2 1.6c-.3-.4-.7-.7-1.1-.9l.9-1.9 2.2 1.2zm-141.3 90.1c-.7-.3-1.5-.3-2.2-.1-.3.1-.6.2-.9.4l3.3-6.1c.1.1.3.1.4.1l-.6 5.7zm-39.2 74.7c1.4-1.7 1.2-4.2-.5-5.6-.1-.1-.2-.1-.3-.2l8.9-16.5c.6 1.1 1.8 1.8 3 1.9l.1 15.2-11.3 9.4-1.2-3.2c.5-.3.9-.6 1.3-1zm11.4 34.7l-11.2-29.8 11-9.1.2 38.9zm195.5-185.5l-33.7 21.7-3.5-6.5 25.7-21.2 11.5 6zm103.5-101.2l10.3 34.3s-.1 0-.1.1l-21-25.5 10.8-8.9zm32.2-78c.2-.8.2-1.6-.1-2.4-.4-1.2-1.2-2.1-2.2-2.7-1.1-.6-2.3-.7-3.5-.3-1.2.4-2.1 1.2-2.7 2.2-.6 1.1-.7 2.3-.3 3.5.3 1.1 1.1 2 2.1 2.6l-14.8 31.7-.5-84.9L606 128l-.1.1c-.9 1.1-.7 2.6.3 3.5.5.4 1.1.6 1.8.6.7-.1 1.3-.4 1.7-.9.4-.4.5-1 .6-1.5l31.1-4.2-17.5 43-5.1-1.7zm-8.7-37.9c-.1-.5-.4-.9-.8-1.2-.5-.4-1-.6-1.6-.6-.4 0-.9.1-1.2.3l-9.8-12.2v-5.8c.4 0 .8-.1 1.1-.2 1.8-.5 3.1-1.9 3.5-3.7l42.8 13.2-2.4 5.9-31.6 4.3zm24.4-61.5l41.7-40.8 6.1-1.8-31.9 78.4-15.9-35.8zm-.4-.8l-8.4-19L654 33.2l20.4-5.9-40.3 39.4zm-18.5-14.8l-48.7 24.9-26.6-35.5c.1-.2.3-.4.3-.6l80.5 1.6c.1.3.2.6.4.8l-5.9 8.8zm-86.7 141.7c-.9.1-1.8.5-2.3 1.2-.5.7-.7 1.5-.6 2.4.1.8.5 1.6 1.2 2.1 0 0 .1 0 .1.1l-.5 2.1-38.9-80.5 42.7 45.2-1.7 27.4zm-9.7 37.2l-14.4 1.4c0-.2-.1-.3-.1-.4-.3-1.1-1.1-1.9-2.1-2.5-1-.5-2.1-.6-3.2-.3s-1.9 1.1-2.5 2.1c-.5 1-.6 2.1-.3 3.2.3 1 1 1.8 1.9 2.3l-44.4 93.2-30.6-16.3c.4-1 .5-2.1.2-3.2l62-189c.4.1.9 0 1.3-.1l39.3 81.4-7.1 28.2zm-66.3 101.7c-.9-.3-1.9-.3-2.7-.1-1.1.4-2.1 1.1-2.6 2.2-.6 1.1-.7 2.3-.3 3.4.1.3.3.7.5 1l-10.1 6.5-15.8-29.5.2-.5c.3-.2.6-.5.8-.7.1-.1.2-.3.3-.4l30.7 16.3-1 1.8zm-51.3 45.2l3.3-10.2 32.3-20.8.5 1-36.1 30zm2.6-10.7l-75.9 48.9-8.6-2c.1-.8-.1-1.6-.6-2.2l96.9-96.3c.9.7 1.9 1.1 3 1.1.6 0 1.2-.1 1.8-.4L404.2 367zm11.3-52.3L318.6 411c-.5-.4-1.2-.6-1.9-.6h-.3l-34.2-161.8c1-.3 1.9-.9 2.5-1.6.1-.2.3-.4.4-.6l129.5 63.5c-.5 1.7-.2 3.5.9 4.8zm-127.8 226l.2 28.3-76-.2 8.5-18.2c.8.3 1.7.3 2.4.1 1.7-.5 2.8-2 2.8-3.7l62.1-6.3zm-76.8 28.1l-48.4-.1v-.1c-.2-1.8-1.3-3.3-2.9-3.9l4.2-13.6 54-3.5c0 .2.1.3.1.5.3.9.9 1.7 1.7 2.2l-8.7 18.5zm-53.2-4.5h-.4c-.2 0-.4 0-.5.1l-3.8-12.6 9.9-.6-4.1 13.3c-.4-.2-.7-.2-1.1-.2zm-28 36.1l25.2-27.7c.8.6 1.9 1 2.9 1h.4c.2 0 .4-.1.7-.1l14.2 41.6-43.4-14.8zm-8.8 12c-.1-.6-.3-1.1-.7-1.6l8.8-9.7 44.4 15.1 32.5 95.1c-.1.1-.2.1-.3.2l-85.5-96.9c.6-.6.9-1.4.8-2.2zm60.9 6.6c-.3 1-.2 2.1.1 3.1.7 2.4 2.9 4 5.4 4 .6 0 1.1-.1 1.7-.3 3-.9 4.6-4.1 3.7-7-.4-1.4-1.4-2.5-2.6-3.2l21.5-46 76.4.2v3.2c-.3 0-.6.1-.8.1-2.2.7-3.5 3.1-2.8 5.3.2.5.4 1 .8 1.4L216.5 647l-1.9 1.9 52.2-26.7-57.9 89c-.4-.2-.8-.3-1.3-.3h-.6l-32.3-94.5 7.1 2.6zm37 26.8l66.8-65.3c.8.7 1.7 1 2.7 1 .4 0 .8-.1 1.2-.2 1.8-.6 3-2.3 3-4.2l3.8-.5-28.9 44.3-48.6 24.9zm85.3-71.1c1.2-.6 2.1-1.6 2.6-2.9.6-1.5.6-3.2-.2-4.7l44.9-26.6 22.6 23.9c-.4.4-.6.9-.7 1.4l-69.2 8.9zm56.9-40.8l-15-31 35.2-74 36.4 8.4-25.6 78.1-31 18.5zm57.8-97.1l20.1-61.2 10.2-6.6 43.4 81.9c-.4.3-.8.6-1.1.9-.4.5-.7 1-.9 1.6l-71.7-16.6zm67.8-89.2zm-2.7-1l1.1.6c-.8 1.9-.3 4.2 1.3 5.5.8.7 1.8 1 2.9 1.1l5.2 96.4-1.2.3-43.4-82 34.1-21.9zm1.8-.6c-.1.1-.2.3-.3.4l-.7-.3 6-3.9-.5 2.1c-1.7-.2-3.4.4-4.5 1.7zm6-4.4l68.8-44.3c.8 1 2.1 1.6 3.4 1.6.4 0 .9-.1 1.3-.2 1.1-.3 2-1.1 2.5-2.1s.6-2.2.3-3.3c-.6-1.8-2.2-3-4.1-3h-.5l-4-19.5c1.7-.6 2.6-2.4 2.1-4.1-.1-.3-.2-.5-.4-.8l14.1-11.6 21 25.5c-.4.5-.6 1.1-.6 1.7 0 .2.1.4.2.7l-102.6 64c-.2-.3-.5-.6-.8-.8-.4-.4-.9-.6-1.5-.8l.8-3zm1.9 5.2l102.6-64c.3.4.8.6 1.3.7l-.3 95.2c-1.2.1-2.3.9-2.8 2L494 350c.2-1.1.1-2.2-.4-3.2zm103.8-123.4l-.1-20 15.6-33.3c1 .3 2 .4 2.9.1 1.2-.4 2.3-1.3 2.8-2.5l5 1.7-21.9 53.7-4.3.3zm58.7-100.9v.3l-13.4 1.8 2.3-5.6 11.1 3.5zm1.1-1.7c-.2.2-.4.3-.6.5-.1.1-.2.3-.3.5l-11.1-3.4 5.2-12.9 6.8 15.3zm.7-.3l-7-16 32.5-79.8 9.2-2.7c.3.7.9 1.2 1.5 1.5l-35.1 97c-.4-.1-.8-.1-1.1 0zm34.4-99.2l-8.6 2.5 1.8-4.4 6.8 1.2v.3c-.1.1-.1.2 0 .4zm-7.6-2.8l.4-.4-.2.4h-.2zm-27 12.9l24.5-12.5.7.1-7.4 7.2-17.8 5.2zm-33.2 9.7l31.3-25.4c.4.4 1 .5 1.5.5.6-.1 1.1-.3 1.4-.8l.3-.6 21.8 3.8-27.5 14-28.8 8.5zM617 51.2l5.2-7.7c.2.1.4.1.6.1h.3l1.6 3.6-7.7 4zm-60.4 30.9l-16.8-40.2 26.5 35.3-9.7 4.9zm-67.2 35.2l45.5-23.2-1.1 17.8-44.4 5.7c.1-.1 0-.2 0-.3zm-116 449.5l-104.5 53.4 28.5-43.7 76-9.8c-.1 0-.1.1 0 .1zm18.3-50.1l-15.4 46.9c-.4 0-.7 0-1 .1l-14-29 30.4-18zm202.5-134.1v.3l-46.6 14.2c-.5-1.3-1.8-2.1-3.2-2.1h-.3c-.7.1-1.4.4-1.9.9l-49-44c.2-.3.4-.7.6-1.1l100.5 30.9c-.1.3-.1.6-.1.9zm3.2-153.4v-5l4-.3-2.4 6-1.6-.7zm152.9-16.7c-.1.3-.1.6-.1.9L602.6 223l21.7-53.4 126 42.9z" fill="url(#a)"/></svg>